<svg width="900" height="1000" viewBox="0 0 900 1000" fill="none" xmlns="http://www.w3.org/2000/svg">
  <rect width="900" height="1000" fill="#071020"/>
  <circle cx="520" cy="410" r="270" fill="url(#paint0_radial)"/>
  <circle cx="520" cy="330" r="150" fill="#D9B08C"/>
  <path d="M398 382C398 318 445 262 519 262C593 262 640 319 640 382V438C640 511 585 574 519 574C453 574 398 511 398 438V382Z" fill="#E3BC96"/>
  <path d="M416 336C422 253 475 200 547 200C625 200 673 256 667 350C639 327 611 313 578 304C531 291 474 292 430 313L416 336Z" fill="#111820"/>
  <path d="M407 349C422 292 468 254 524 254C591 254 649 309 649 378V391C627 375 609 360 592 344C577 351 555 355 534 355C497 355 461 344 430 325L407 349Z" fill="#1B2430"/>
  <ellipse cx="475" cy="402" rx="18" ry="11" fill="#1C2432"/>
  <ellipse cx="568" cy="402" rx="18" ry="11" fill="#1C2432"/>
  <path d="M492 488C510 500 529 501 548 488" stroke="#8E5A49" stroke-width="10" stroke-linecap="round"/>
  <path d="M425 613C458 585 491 572 518 572C545 572 584 585 617 613L688 1000H345L425 613Z" fill="#0F1724"/>
  <defs>
    <radialGradient id="paint0_radial" cx="0" cy="0" r="1" gradientUnits="userSpaceOnUse" gradientTransform="translate(520 410) rotate(90) scale(270)">
      <stop stop-color="#2F73FF" stop-opacity="0.95"/>
      <stop offset="1" stop-color="#071020" stop-opacity="0"/>
    </radialGradient>
  </defs>
</svg>
